# xmcd CD database file
#
# Track frame offsets:
#	150
#	14522
#	32457
#	50800
#	66922
#	80479
#	99190
#	116718
#	136538
#	159841
#	179825
#
# Disc length: 2617 seconds
#
# Revision: 0
# Processed by: cddbd v1.5.1PL2 Copyright (c) Steve Scherf et al.
# Submitted via: CDex 1.51
#
DISCID=8a0a370b
DTITLE=AM And The UV - Candy Thunder
DYEAR=2004
DGENRE=Pop
TTITLE0=In This Kiss
TTITLE1=Everybody´s Girlfriend
TTITLE2=Whisper
TTITLE3=Mysterin
TTITLE4=Candy Thunder
TTITLE5=Speak
TTITLE6=Wonderful, Beautiful
TTITLE7=Lovegood
TTITLE8=Alone Again
TTITLE9=Spacedust
TTITLE10=Everywhere We Go
EXTD=YEAR: 2004
EXTT0=
EXTT1=
EXTT2=
EXTT3=
EXTT4=
EXTT5=
EXTT6=
EXTT7=
EXTT8=
EXTT9=
EXTT10=
PLAYORDER=
